# AST/ASF file generated using VICON BodyLanguage
# -----------------------------------------------
:version 1.10
:name VICON
:units
  mass 1.0
  length 0.45
  angle deg
:documentation
   .ast/.asf automatically generated from VICON data using
   VICON BodyBuilder and BodyLanguage model FoxedUp or BRILLIANT.MOD
:root
   order TX TY TZ RX RY RZ
   axis XYZ
   position 0 0 0  
   orientation 0 0 0 
:bonedata
  begin
     id 1 
     name lhipjoint
     direction 0.623529 -0.717805 0.309788 
     length 2.23224 
     axis 0 0 0  XYZ
  end
  begin
     id 2 
     name lfemur
     direction 0.34202 -0.939693 0  
     length 7.11402  
     axis 0 0 20  XYZ
    dof rx ry rz
    limits (-160.0 20.0)
           (-70.0 70.0)
           (-60.0 70.0)
  end
  begin
     id 3 
     name ltibia
     direction 0.34202 -0.939693 0   
     length 6.78496   
     axis 0 0 20   XYZ
    dof rx
    limits (-10.0 170.0)
  end
  begin
     id 4 
     name lfoot
     direction 0.125078 -0.343648 0.930732   
     length 1.84054   
     axis -90 7.62852e-016 20   XYZ
    dof rx rz
    limits (-45.0 90.0)
           (-70.0 20.0)
  end
  begin
     id 5 
     name ltoes
     direction 1.53565e-011 -4.21893e-011 1   
     length 0.916474   
     axis -90 7.62852e-016 20   XYZ
    dof rx
    limits (-90.0 20.0)
  end
  begin
     id 6 
     name rhipjoint
     direction -0.564688 -0.757748 0.327026   
     length 2.11457  
     axis 0 0 0  XYZ 
  end
  begin
     id 7 
     name rfemur
     direction -0.34202 -0.939693 0   
     length 7.14609   
     axis 0 0 -20   XYZ
    dof rx ry rz
    limits (-160.0 20.0)
           (-70.0 70.0)
           (-70.0 60.0)
  end
  begin
     id 8 
     name rtibia
     direction -0.34202 -0.939693 0   
     length 6.78101   
     axis 0 0 -20   XYZ
    dof rx
    limits (-10.0 170.0)
 end
 begin
     id 9 
     name rfoot
     direction -0.0992671 -0.272734 0.956955   
     length 1.96168  
     axis -90 -7.62852e-016 -20   XYZ
    dof rx rz
    limits (-45.0 90.0)
           (-20.0 70.0)
  end
  begin
     id 10 
     name rtoes
     direction -1.5356e-011 -4.21891e-011 1   
     length 0.982933   
     axis -90 -7.62852e-016 -20   XYZ
    dof rx
    limits (-90.0 20.0)
  end
  begin
     id 11 
     name lowerback
     direction -0.00596953 0.998668 0.0512524   
     length 1.87557   
     axis 0 0 0   XYZ
    dof rx ry rz
    limits (-20.0 45.0)
           (-30.0 30.0)
           (-30.0 30.0)
  end
  begin
     id 12 
     name upperback
     direction 0.00584879 0.999652 0.0257308   
     length 1.87883   
     axis 0 0 0   XYZ
    dof rx ry rz
    limits (-20.0 45.0)
           (-30.0 30.0)
           (-30.0 30.0)
  end
  begin
     id 13 
     name thorax
     direction 0.010104 0.999947 0.00178881   
     length 1.87779   
     axis 0 0 0   XYZ
    dof rx ry rz
    limits (-20.0 45.0)
           (-30.0 30.0)
           (-30.0 30.0)
  end
  begin
     id 14 
     name lowerneck
     direction 0.0120771 0.995934 -0.0892773   
     length 1.40897   
     axis 0 0 0   XYZ
    dof rx ry rz
    limits (-20.0 45.0)
           (-30.0 30.0)
           (-30.0 30.0)
  end
  begin
     id 15 
     name upperneck
     direction -0.030568 0.999465 -0.0116366   
     length 1.38661   
     axis 0 0 0   XYZ
    dof rx ry rz
    limits (-20.0 45.0)
           (-30.0 30.0)
           (-30.0 30.0)
  end
  begin
     id 16
     name head
     direction -0.0170715 0.999854 -0.00104426  
     length 1.47052  
     axis 0 0 0   XYZ
    dof rx ry rz
    limits (-20.0 45.0)
           (-30.0 30.0)
           (-30.0 30.0)
  end
  begin
     id 17 
     name lclavicle
     direction 0.977763 0.206143 0.038532  
     length 3.02424  
     axis 0 0 0   XYZ
    dof ry rz
    limits (-20.0 10.0)
           (0.0 20.0)
  end
  begin
     id 18 
     name lhumerus
     direction 1 -4.48965e-011 -2.62654e-027   
     length 4.68382   
     axis 180 -30 -90   XYZ
    dof rx ry rz
    limits (-60.0 90.0)
           (-90.0 90.0)
           (-90.0 90.0)
  end
  begin
     id 19
     name lradius
     direction 1 -4.48973e-011 -1.54954e-027   
     length 2.98124   
     axis 180 -30 -90   XYZ
    dof rx
    limits (-10.0 170.0)
  end
  begin
     id 20
     name lwrist
     direction 1 -4.48959e-011 7.20928e-028   
     length 1.49062   
     axis -5.52449e-016 90 90   XYZ
    dof ry
    limits (-180.0 0.0)
 end
  begin
     id 21 
     name lhand
     direction 1 -4.48971e-011 1.44186e-027   
     length 0.707595   
     axis -9.20027e-016 90 90   XYZ
    dof rx rz
    limits (-90.0 90.0)
           (-45.0 45.0)
  end
  begin
     id 22 
     name lfingers
     direction 1 -4.48985e-011 2.88371e-027   
     length 0.570481   
     axis -1.84005e-015 90 90   XYZ
    dof rx
    limits (0.0 90.0)
  end
  begin
     id 23
     name lthumb
     direction 0.707107 -6.34929e-011 0.707107   
     length 0.819101   
     axis -90 45 2.85299e-015   XYZ
    dof rx rz
    limits (-45.0 45.0)
           (-45.0 45.0)
  end
  begin
     id 24 
     name rclavicle
     direction -0.958661 0.284411 -0.00895327   
     length 3.11921  
     axis 0 0 0   XYZ 
    dof ry rz
    limits (-10.0 20.0)
           (-20.0 0.0)
  end
  begin
     id 25 
     name rhumerus
     direction -1 -4.48963e-011 -4.22193e-027  
     length 4.75876   
     axis 180 30 90   XYZ
    dof rx ry rz
    limits (-90.0 60.0)
           (-90.0 90.0)
           (-90.0 90.0)
  end
  begin
     id 26 
     name rradius
     direction -1 -4.48968e-011 -1.07616e-027   
     length 2.93293   
     axis 180 30 90   XYZ
    dof rx
    limits (-10.0 170.0)
  end
  begin
     id 27 
     name rwrist
     direction -1 -4.48965e-011 7.20928e-028   
     length 1.46647   
     axis -5.52449e-016 -90 -90   XYZ
    dof ry
    limits (-180.0 0.0)
  end
  begin
     id 28
     name rhand
     direction -1 -4.48971e-011 1.44186e-027   
     length 0.831748   
     axis -9.20027e-016 -90 -90   XYZ
    dof rx rz
    limits (-90.0 90.0)
           (-45.0 45.0)
  end
  begin
     id 29
     name rfingers
     direction -1 -4.48961e-011 2.88371e-027   
     length 0.670577   
     axis -1.84005e-015 -90 -90   XYZ
    dof rx
    limits (0.0 90.0)
  end
  begin
     id 30
     name rthumb
     direction -0.707107 -6.34929e-011 0.707107   
     length 0.962818   
     axis -90 -45 -2.85299e-015   XYZ
    dof rx rz
    limits (-45.0 45.0)
           (-45.0 45.0)
  end
:hierarchy
  begin
    root lhipjoint rhipjoint lowerback
    lhipjoint lfemur
    lfemur ltibia
    ltibia lfoot
    lfoot ltoes
    rhipjoint rfemur
    rfemur rtibia
    rtibia rfoot
    rfoot rtoes
    lowerback upperback
    upperback thorax
    thorax lowerneck lclavicle rclavicle
    lowerneck upperneck
    upperneck head
    lclavicle lhumerus
    lhumerus lradius
    lradius lwrist
    lwrist lhand lthumb
    lhand lfingers
    rclavicle rhumerus
    rhumerus rradius
    rradius rwrist
    rwrist rhand rthumb
    rhand rfingers
  end

#!OML:ASF E:\id_vita\Project 1\Capture day 1\Session 1\Female.ASF
:FULLY-SPECIFIED
:DEGREES
189
root 17.9417 16.4504 1.47733 -134.628 -79.002 164.576
lowerback -10.5072 2.02004 -3.5275
upperback -8.79767 2.46685 -0.602343
thorax -3.45075 1.19348 1.53548
lowerneck 0.86035 -1.04729 -6.26091
upperneck -7.72903 -1.40482 4.24942
head -2.55957 -0.679815 2.52065
rclavicle -1.37658e-014 1.47101e-014
rhumerus 36.1092 -55.058 1.23961
rradius 75.7156
rwrist 6.6981
rhand -38.593 17.7228
rfingers 7.12502
rthumb -11.6112 -11.9355
lclavicle -1.37658e-014 1.47101e-014
lhumerus 19.38 54.1627 -15.5311
lradius 55.6159
lwrist 7.27925
lhand -32.9859 33.6244
lfingers 7.12502
lthumb -6.20056 63.5137
rfemur -40.4154 -2.58034 17.3299
rtibia 42.2934
rfoot -11.5314 -10.5433
rtoes -29.2437
lfemur -39.0862 0.665841 -25.8146
ltibia 43.8173
lfoot -16.42 2.85086
ltoes -17.7829
190
root 18.0738 16.0904 1.48804 -135.116 -78.7762 165.038
lowerback -9.46574 2.1127 -3.54239
upperback -8.94647 2.55498 -0.563522
thorax -4.18691 1.25567 1.54816
lowerneck 2.19917 -0.93899 -6.42463
upperneck -9.10527 -1.34107 4.27123
head -3.2844 -0.646427 2.60792
rclavicle -2.87741e-014 -1.70955e-014
rhumerus 32.5547 -53.9214 1.98936
rradius 80.2702
rwrist 5.79062
rhand -39.76 17.5435
rfingers 7.12502
rthumb -12.7364 -12.0481
lclavicle -2.87741e-014 -1.70955e-014
lhumerus 15.1629 52.9147 -16.8239
lradius 57.9744
lwrist 7.15288
lhand -32.6012 33.6619
lfingers 7.12502
lthumb -5.8292 63.5617
rfemur -41.4324 -2.3102 16.9536
rtibia 43.9397
rfoot -19.8624 -13.0658
rtoes -21.22
lfemur -39.373 0.520618 -25.6512
ltibia 44.6052
lfoot -24.3736 5.62752
ltoes -11.8443
191
root 18.224 15.7261 1.50571 -137.264 -78.9265 167.081
lowerback -7.96654 2.17676 -2.82586
upperback -9.11759 2.56545 -0.494617
thorax -5.16109 1.2428 1.16217
lowerneck 2.4287 -0.848557 -6.14358
upperneck -9.46971 -1.26169 3.78263
head -3.45828 -0.598846 2.39752
rclavicle -2.43511e-014 -4.57205e-014
rhumerus 28.9333 -52.4831 2.51378
rradius 84.5575
rwrist 4.78171
rhand -41.0619 17.9651
rfingers 7.12502
rthumb -13.9913 -11.5441
lclavicle -2.43511e-014 -4.57205e-014
lhumerus 10.4245 51.222 -18.4725
lradius 60.6951
lwrist 8.05241
lhand -32.4631 33.5525
lfingers 7.12502
lthumb -5.69588 63.4559
rfemur -42.4488 -3.30883 17.9016
rtibia 45.4659
rfoot -24.6591 -18.7226
rtoes -31.0573
lfemur -39.5007 1.02029 -25.4751
ltibia 45.0276
lfoot -31.3361 9.62846
ltoes -12.3293
192
root 18.3599 15.5196 1.54333 -137.568 -78.8839 168.664
lowerback -7.75128 2.3215 -2.07936
upperback -9.53617 2.68729 -0.576796
thorax -5.69107 1.24985 0.648008
lowerneck 1.91938 -0.776496 -5.93259
upperneck -9.51246 -1.16523 3.4
head -3.37964 -0.544329 2.21758
rclavicle -2.44008e-014 4.77083e-015
rhumerus 24.7109 -50.9111 3.46611
rradius 88.7554
rwrist 3.51645
rhand -42.1644 18.9765
rfingers 7.12502
rthumb -15.0536 -10.4562
lclavicle -2.44008e-014 4.77083e-015
lhumerus 5.65502 49.3393 -19.8003
lradius 63.4221
lwrist 9.64637
lhand -32.8632 33.4479
lfingers 7.12502
lthumb -6.08211 63.3406
rfemur -45.5465 -4.85865 19.0936
rtibia 48.7078
rfoot -26.5891 -20.9792
rtoes -32.8716
lfemur -41.4598 1.54294 -25.9251
ltibia 46.4809
lfoot -31.1148 19.5884
ltoes -28.9965
193
root 18.4845 15.4704 1.56638 -132.721 -78.2404 166.97
lowerback -9.14524 2.44394 -2.55094
upperback -10.449 2.77134 -0.9499
thorax -5.92247 1.26861 0.558068
lowerneck 1.30283 -0.669293 -5.74035
upperneck -9.84108 -1.01868 3.10167
head -3.38274 -0.46836 2.07365
rclavicle 6.5102e-014 -3.37934e-014
rhumerus 19.8112 -49.0486 4.68968
rradius 92.9054
rwrist 2.45214
rhand -43.2686 19.5822
rfingers 7.12502
rthumb -16.117 -9.76765
lclavicle 6.5102e-014 -3.37934e-014
lhumerus 1.15293 47.3451 -20.4973
lradius 66.0441
lwrist 10.982
lhand -33.4902 33.5732
lfingers 7.12502
lthumb -6.68749 63.4476
rfemur -51.5682 -4.50559 18.7249
rtibia 53.2024
rfoot -27.7839 -17.7225
rtoes -26.6227
lfemur -46.8172 0.44593 -26.5289
ltibia 50.2243
lfoot -33.1858 18.6702
ltoes -20.3279
194
root 18.6596 15.2019 1.58016 -131.93 -77.5101 168.192
lowerback -9.0408 2.72679 -2.61047
upperback -11.006 3.07886 -1.24333
thorax -6.59068 1.40062 0.274727
lowerneck 1.27917 -0.806323 -5.2559
upperneck -11.289 -1.26636 2.60167
head -3.87333 -0.593282 1.85008
rclavicle -3.19049e-014 -5.1684e-015
rhumerus 14.4498 -46.9482 5.77866
rradius 96.8652
rwrist 2.21682
rhand -44.6281 19.5129
rfingers 7.12502
rthumb -17.4258 -9.726
lclavicle -3.19049e-014 -5.1684e-015
lhumerus -3.26038 45.2447 -20.7171
lradius 68.6513
lwrist 11.7698
lhand -34.0944 34.0666
lfingers 7.12502
lthumb -7.27067 63.9217
rfemur -58.384 -3.44651 18.6545
rtibia 59.3391
rfoot -26.3549 -15.9272
rtoes -23.3117
lfemur -52.5753 -1.03217 -26.1494
ltibia 55.6219
lfoot -33.4198 16.4962
ltoes -9.88453
